<svg xmlns="http://www.w3.org/2000/svg" viewBox="0 0 71.14 29.52"><defs><style>.cls-1,.cls-2{fill:#fff;}.cls-2{font-size:13px;font-family:TimesNewRomanPS-BoldMT, Times New Roman;font-weight:700;}</style></defs><title>a-club</title><g id="Layer_2" data-name="Layer 2"><g id="Layer_1-2" data-name="Layer 1"><path class="cls-1" d="M.28,25.74A.29.29,0,0,0,0,26v3.21a.29.29,0,0,0,.28.28H17.92a.28.28,0,0,0,.27-.28V26a.28.28,0,0,0-.27-.29ZM9.1,1.18c1.93,0,2.53,1.38,3,2.76l5.38,14.73a.3.3,0,0,1-.16.37l-2.93,1.13a.27.27,0,0,1-.36-.17l-1.25-3.47H5.39L4.13,20a.28.28,0,0,1-.36.17L.84,19a.28.28,0,0,1-.16-.37L6.05,3.94C6.54,2.58,7.17,1.18,9.1,1.18m0,4.48L6.57,13.2h5.06L9.11,5.66ZM32.57,17.45l1.36.34a4.68,4.68,0,0,1-1.53,2.55,4.27,4.27,0,0,1-2.71.87A4.85,4.85,0,0,1,27,20.54a4.22,4.22,0,0,1-1.58-1.95,7,7,0,0,1-.54-2.75,6,6,0,0,1,.61-2.79,4.28,4.28,0,0,1,1.74-1.81,5.09,5.09,0,0,1,2.48-.61,4.18,4.18,0,0,1,2.58.78,4,4,0,0,1,1.46,2.2l-1.33.31a3.19,3.19,0,0,0-1-1.62,2.78,2.78,0,0,0-1.71-.51,3.3,3.3,0,0,0-2,.56,2.94,2.94,0,0,0-1.11,1.52,6.43,6.43,0,0,0,.06,4.24,2.79,2.79,0,0,0,1.18,1.46,3.3,3.3,0,0,0,1.74.48,2.92,2.92,0,0,0,1.92-.65,3.32,3.32,0,0,0,1.07-1.95M35.93,21V10.8h1.35v9h5V21ZM51,10.8H52.4v5.92a7.11,7.11,0,0,1-.35,2.45,3.08,3.08,0,0,1-1.26,1.47,4.49,4.49,0,0,1-2.4.57A4.94,4.94,0,0,1,46,20.72a2.81,2.81,0,0,1-1.3-1.44,6.6,6.6,0,0,1-.4-2.56V10.8H45.7v5.91a5.59,5.59,0,0,0,.25,2,1.85,1.85,0,0,0,.85,1,2.92,2.92,0,0,0,1.48.34,2.81,2.81,0,0,0,2.13-.68,3.92,3.92,0,0,0,.63-2.6ZM55,21V10.8h3.84a4.69,4.69,0,0,1,1.88.31,2.37,2.37,0,0,1,1.11,1,2.51,2.51,0,0,1,.41,1.35,2.26,2.26,0,0,1-.36,1.23,2.57,2.57,0,0,1-1.08.94,2.64,2.64,0,0,1,1.43.93,2.44,2.44,0,0,1,.5,1.55,3,3,0,0,1-.3,1.34,2.52,2.52,0,0,1-.75.95,3.31,3.31,0,0,1-1.12.51,7.06,7.06,0,0,1-1.66.17Zm1.36-5.94h2.21A4.87,4.87,0,0,0,59.84,15a1.42,1.42,0,0,0,.78-.5,1.52,1.52,0,0,0,.26-.9,1.68,1.68,0,0,0-.24-.9,1.25,1.25,0,0,0-.7-.53A6.1,6.1,0,0,0,58.38,12h-2Zm0,4.73h2.54a6.31,6.31,0,0,0,.93,0,2.31,2.31,0,0,0,.78-.28,1.52,1.52,0,0,0,.52-.57,1.82,1.82,0,0,0,.2-.86,1.66,1.66,0,0,0-.3-1,1.5,1.5,0,0,0-.81-.6,5.23,5.23,0,0,0-1.5-.17H56.34ZM26.87,5.51h2l.5,1.19h.42L28,2.55H27.9l0-.12,0,.12h-.13L25.94,6.7h.43Zm1.81-.4H27l.82-1.95ZM33,6.7H30.42V2.55h.39V6.3H33Zm1.12,0h-.39V2.55h2.59V3h-2.2v1.5h2v.4h-2Zm4.21-4.15,0-.12,0,.12h-.12L36.36,6.7h.43l.5-1.19h2l.51,1.19h.42L38.44,2.55Zm-.86,2.56.81-1.95.83,2Zm11.8-.6a1,1,0,0,0,.47-.86c0-.7-.49-1.1-1.35-1.1H46.93V6.7h1.41a1.7,1.7,0,0,0,1.25-.39,1.08,1.08,0,0,0,.29-.79,1.05,1.05,0,0,0-.62-1m-.7-.18H47.33V3h1c1,0,1,.54,1,.71a.7.7,0,0,1-.77.67m-1.23.4h1.18c.36,0,1,.1,1,.78A.72.72,0,0,1,49.3,6a1.46,1.46,0,0,1-1,.26h-1Zm3.82.78h2l.51,1.19h.43L52.32,2.55h-.11l-.05-.11,0,.11H52L50.21,6.7h.42ZM53,5.11H51.32l.84-2ZM55.18,6.7h-.4V2.55h.13v0l0,0h.15l2.47,3.37V2.55H58V6.7h-.13v0l0,0h-.16L55.18,3.33Zm5.3-1.93h-.93V6.7h-.39V2.55h.39V4.38h.93l1.28-1.83h.47l-1.41,2L62.39,6.7H61.9ZM27,25.92h-.92v3h.35V27.9H27c1,0,1.19-.54,1.19-1,0-.64-.42-1-1.19-1m0,1.62H26.4V26.28H27c.74,0,.84.34.84.63s-.09.63-.84.63m3.88-.69a.92.92,0,0,0-1-.93H28.74v3h.35V27.79h.65l1,1.17h.46l-1-1.21a.87.87,0,0,0,.69-.9m-1,.58h-.74V26.28h.74c.16,0,.67,0,.67.57a.59.59,0,0,1-.67.58m1.71-1.51h.35v3h-.35Zm3.51,0-1.22,3h-.09l0,.11L33.65,29h-.09l-1.22-3h.38l1,2.44,1-2.44Zm1.37,0-.06-.16,0,.16h-.09l-1.28,3h.38l.36-.86H37l.36.86h.38l-1.28-3Zm-.59,1.83.53-1.26.53,1.26Zm1.75-1.83h2.31v.36h-1V29h-.35V26.28h-1Zm3.16,2.68h1.6V29h-2v-3H42.3v.36H40.74v1h1.45v.36H40.74ZM46,27.35a.72.72,0,0,0,.29-.61c0-.51-.37-.82-1-.82h-1v3h1a1.23,1.23,0,0,0,.89-.28.77.77,0,0,0,.22-.6.79.79,0,0,0-.39-.73m-.56-.16h-.83v-.91h.7c.63,0,.63.35.63.47a.46.46,0,0,1-.5.44m-.83.36h.79c.24,0,.64.07.64.52a.51.51,0,0,1-.12.36,1,1,0,0,1-.65.17h-.66Zm3.46-1.63L48,25.76l-.06.16h-.08L46.6,29H47l.36-.86H48.7l.36.86h.39l-1.28-3Zm-.59,1.83L48,26.49l.53,1.26Zm4.31-1.83h.36v3h-.09v.1L52,29h-.11l-1.66-2.33V29h-.35v-3H50v-.11l.08.11h.1l1.66,2.32Zm2.42,1.48L55.36,29h-.44l-1-1.38h-.58V29H53v-3h.35v1.3h.59l.89-1.3h.43Zm1.46-1.48H56v3h-.35Zm3.11,0h.35v3h-.09v.1L59,29h-.12l-1.65-2.33V29h-.36v-3H57v-.11l.08.11h.11l1.66,2.32Zm3,1.32h.35v1.52l-.07,0a2,2,0,0,1-.84.2,1.56,1.56,0,0,1,0-3.12,1.64,1.64,0,0,1,.8.2l.06,0v.41l-.2-.11a1.26,1.26,0,0,0-.65-.17,1.08,1.08,0,0,0-1.13,1.2,1.16,1.16,0,0,0,1.7,1.09ZM43.67,3.83a.8.8,0,1,1-.79.79.8.8,0,0,1,.79-.79"/><text class="cls-2" transform="translate(65.47 6.3) scale(0.58)">®</text></g></g></svg>