<svg xmlns="http://www.w3.org/2000/svg" width="201" height="44" viewBox="0 0 201 44">
  <defs>
    <style>
      .cls-1 {
        fill: #fff;
        fill-rule: evenodd;
      }
    </style>
  </defs>
  <path id="_-e-logo" data-name="-e-logo" class="cls-1" d="M2231.37,2859.22c-7.47,6.34-18.7.72-18.98-8.94-0.27-10.2,8.58-13.98,17.29-12.14,3.32-.13,5.15-4.52.09-6.52a19.467,19.467,0,0,0-16.19,1.78,19.723,19.723,0,0,0-6.83,7.11,18.69,18.69,0,0,0-2.52,9.53,18.192,18.192,0,0,0,2.72,9.63,20.073,20.073,0,0,0,7.41,7.08,21.375,21.375,0,0,0,10.37,2.61,13.6,13.6,0,0,0,9.24-3.32C2238.56,2862.26,2235.74,2858.63,2231.37,2859.22Zm-45.29-28.58a7.339,7.339,0,0,0-5.74,3.47q-6.18,16.275-12.34,32.58l7.21,2.51,2.76-7.55h16.19l2.78,7.71,7.29-2.81-12.78-33.01A5.606,5.606,0,0,0,2186.08,2830.64Zm-5.79,24.62,5.79-15.85v-0.05l5.76,15.9h-11.55Zm185.22,2.64a4.763,4.763,0,0,0-2.34.44,2.421,2.421,0,0,0-1.18,2.21,2.291,2.291,0,0,0,.67,1.77,3.183,3.183,0,0,0,1.24.62l-2.36,3.79h2.08l2-3.42h1.63v3.42H2369v-8.83h-3.49Zm1.74,3.91h-1.93a1.844,1.844,0,0,1-1.08-.26,0.949,0.949,0,0,1-.43-0.82,1.1,1.1,0,0,1,.53-1.09,2.266,2.266,0,0,1,1.14-.2h1.77v2.37Zm-10.46-.47h-4.36v-3.44h-1.75v8.83h1.75v-3.85h4.36v3.85h1.75v-8.83h-1.75v3.44Zm-11.82,0h-4.36v-3.44h-1.75v8.83h1.75v-3.85h4.36v3.85h1.75v-8.83h-1.75v3.44Zm-13.82-3.44a5.132,5.132,0,0,0-2.52.45,2.187,2.187,0,0,0-1.17,1.84h1.78a0.887,0.887,0,0,1,.44-0.71,2.857,2.857,0,0,1,1.4-.25,2.038,2.038,0,0,1,1.3.31,1.659,1.659,0,0,1,.42,1.36v0.32h-1.33a6.306,6.306,0,0,0-3,.54,2.63,2.63,0,0,0-1.42,2.33,2.418,2.418,0,0,0,.9,1.93,3.5,3.5,0,0,0,2.29.71,3.828,3.828,0,0,0,2.56-.96v0.96h1.75v-5.45a3.569,3.569,0,0,0-.86-2.69A3.89,3.89,0,0,0,2331.15,2857.9Zm1.65,4.93a2.69,2.69,0,0,1-.51,1.7,2.323,2.323,0,0,1-1.87.87,1.662,1.662,0,0,1-1.18-.43,1.237,1.237,0,0,1-.36-0.94,1.312,1.312,0,0,1,1.03-1.34,5.9,5.9,0,0,1,1.72-.15h1.17v0.29Zm-11.33-.77a2.292,2.292,0,0,0,1-.65,2.017,2.017,0,0,0,.35-1.19,2.155,2.155,0,0,0-.68-1.64,3.813,3.813,0,0,0-2.46-.68h-4.11v8.83h4.24a3.906,3.906,0,0,0,2.52-.72,2.421,2.421,0,0,0,.82-1.86A1.982,1.982,0,0,0,2321.47,2862.06Zm-4.15-2.65h2.14a2.117,2.117,0,0,1,1.22.26,0.952,0.952,0,0,1,.32.74,0.886,0.886,0,0,1-.3.72,2.11,2.11,0,0,1-1.33.28h-2.05v-2Zm3.66,5.46a1.879,1.879,0,0,1-1.24.35h-2.42v-2.4h2.36a2.3,2.3,0,0,1,1.16.24,1.11,1.11,0,0,1,.49.98A1.092,1.092,0,0,1,2320.98,2864.87Zm-12.73-2.12-2.79-4.85h-2.08l3.96,6.54-1.49,2.7a1.736,1.736,0,0,1-.37.46,1.063,1.063,0,0,1-.73.24h-0.67v1.52h0.72a2.526,2.526,0,0,0,1.5-.43,3.376,3.376,0,0,0,1.02-1.12l5.46-9.91h-1.92Zm-6.51-4.85h-2.07l-2.03,2.98-2.04-2.98h-2.19l3.11,4.28-3.26,4.55h2.1l2.17-3.21,2.21,3.21h2.21l-3.28-4.53Zm-15.07,0a5.163,5.163,0,0,0-2.52.45,2.187,2.187,0,0,0-1.17,1.84h1.79a0.849,0.849,0,0,1,.43-0.71,2.857,2.857,0,0,1,1.4-.25,2.038,2.038,0,0,1,1.3.31,1.659,1.659,0,0,1,.42,1.36v0.32h-1.33a6.306,6.306,0,0,0-3,.54,2.618,2.618,0,0,0-1.41,2.33,2.414,2.414,0,0,0,.89,1.93,3.5,3.5,0,0,0,2.29.71,3.812,3.812,0,0,0,2.56-.96v0.96h1.75v-5.45a3.529,3.529,0,0,0-.86-2.69A3.876,3.876,0,0,0,2286.67,2857.9Zm1.65,4.93a2.69,2.69,0,0,1-.51,1.7,2.309,2.309,0,0,1-1.87.87,1.619,1.619,0,0,1-1.17-.43,1.206,1.206,0,0,1-.37-0.94,1.312,1.312,0,0,1,1.03-1.34,5.9,5.9,0,0,1,1.72-.15h1.17v0.29Zm-13.2-4.93a4.018,4.018,0,0,0-1.47.23,2.665,2.665,0,0,0-1.23.88v-1.11h-1.67v11.46h1.76v-3.73a2.79,2.79,0,0,0,1.12.85,3.706,3.706,0,0,0,1.49.25,3.528,3.528,0,0,0,2.87-1.13,4.636,4.636,0,0,0,1-3.29,4.588,4.588,0,0,0-1.16-3.43A3.648,3.648,0,0,0,2275.12,2857.9Zm1.59,6.34a2.079,2.079,0,0,1-1.87,1.02,2.057,2.057,0,0,1-1.84-.97,3.648,3.648,0,0,1-.49-1.98,3.73,3.73,0,0,1,.5-1.99,2.28,2.28,0,0,1,3.58-.12,3.325,3.325,0,0,1,.58,2.11A3.729,3.729,0,0,1,2276.71,2864.24Zm-17.13-4.8h3.07v7.29h1.75v-7.29h3.1v-1.54h-7.92v1.54Zm-5.04,5.44a1.583,1.583,0,0,1-1,.33,1.952,1.952,0,0,1-1.85-1.65,8.661,8.661,0,0,1-.32-2.6,8.133,8.133,0,0,1,.42-2.86,1.823,1.823,0,0,1,1.77-1.3,1.454,1.454,0,0,1,.96.31,1.241,1.241,0,0,1,.42.94h1.79a2.9,2.9,0,0,0-.91-2.09,3.347,3.347,0,0,0-2.22-.7,3.5,3.5,0,0,0-3.28,1.8,8.932,8.932,0,0,0-.77,3.97,9.15,9.15,0,0,0,.66,3.68,3.937,3.937,0,0,0,5.68,1.32,3.181,3.181,0,0,0,.96-2.22h-1.82A1.7,1.7,0,0,1,2254.54,2864.88Zm56.52-28.84a4.825,4.825,0,0,0-2.28.45v-5.83h-3.57v5.83a4.825,4.825,0,0,0-2.28-.45c-3.64,0-5.86,2.21-5.86,7.16,0,4.6,2,7.02,5.26,7.02a5.51,5.51,0,0,0,2.88-.66v4.89h3.57v-4.89a5.51,5.51,0,0,0,2.88.66c3.03,0,5.26-2.51,5.26-7.1C2316.92,2838.16,2314.7,2836.04,2311.06,2836.04Zm-5.85,10.9a4.915,4.915,0,0,1-1.83.29c-1.87,0-2.64-1.53-2.64-4.03,0-2.73.83-4.17,2.47-4.17a3.783,3.783,0,0,1,2,.4v7.51Zm5.4,0.29a4.946,4.946,0,0,1-1.83-.29v-7.51a3.783,3.783,0,0,1,2-.4c1.64,0,2.47,1.35,2.47,4.09C2313.25,2845.61,2312.25,2847.23,2310.61,2847.23Zm-39.53-10.34v6.71a9.1,9.1,0,0,1-.23,2.96,3.041,3.041,0,0,1-1.19,1.62l0.98,2.09c2.87-.81,3.95-2.06,3.95-6.03v-4.93a9.862,9.862,0,0,1,1.9-.17,9.418,9.418,0,0,1,1.86.17v10.68h3.58v-13.1a17.679,17.679,0,0,0-5.44-.84A17.492,17.492,0,0,0,2271.08,2836.89Zm59.12,11.8a6.193,6.193,0,0,1-1.18-4.09v-3.66c0-1.98-.23-2.71-0.76-3.43-0.72-1.02-1.94-1.46-4.17-1.46a18.511,18.511,0,0,0-4.6.55l0.53,2.62a22.723,22.723,0,0,1,2.81-.26c2.37,0,2.64.35,2.64,2.12v0.66a6.881,6.881,0,0,0-1.8-.24c-3.58,0-5.47,1.74-5.47,4.62,0,2.7,2.01,4.18,4.48,4.18a7.2,7.2,0,0,0,2.63-.48,6.923,6.923,0,0,0,1.24-.7,3.756,3.756,0,0,0,1.37,1.15Zm-6.47-1.24c-1.28,0-2-.5-2-1.81,0-1.37.92-1.83,2.69-1.83a3.4,3.4,0,0,1,1.05.14v0.97a8.6,8.6,0,0,0,.19,2.2A5.39,5.39,0,0,1,2323.73,2847.45Zm-28.04-2.33c0-2.93-1.8-4.74-5.17-4.74a8.766,8.766,0,0,0-2.29.34v-4.45h-3.58l-0.01,13.01a13.82,13.82,0,0,0,5.22,1.03C2293.65,2850.31,2295.69,2848.35,2295.69,2845.12Zm-7.46,2.22v-3.93a6.27,6.27,0,0,1,1.57-.21c1.64,0,2.19.8,2.19,2.09,0,1.34-.47,2.26-2.19,2.26A4.5,4.5,0,0,1,2288.23,2847.34Zm-29.5-16.71a3.756,3.756,0,0,0-2.92,1.86c-2.1,5.8-4.18,11.61-6.28,17.41l3.67,1.35,1.4-4.04h8.24l1.42,4.12,3.71-1.5-6.5-17.64A2.847,2.847,0,0,0,2258.73,2830.63Zm-2.95,13.17,2.95-8.48v-0.02l2.93,8.5h-5.88Zm-12.84-15.81a1.325,1.325,0,0,0-1.32,1.32v41.37a1.315,1.315,0,1,0,2.63,0v-41.37A1.323,1.323,0,0,0,2242.94,2827.99Z" transform="translate(-2168 -2828)"/>
</svg>
